# xmcd
#
# Track frame offsets:
#	150
#	13708
#	33298
#	39740
#	53053
#	75868
#	93060
#	98925
#	117735
#	127123
#	149053
#	171758
#
# Disc length: 2607 seconds
#
# Revision: 34
# Processed by: cddbd v1.5.2PL0 Copyright (c) Steve Scherf et al.
# Submitted via: audiograbber 1.83.01
#
DISCID=9d0a2d0c
DTITLE=Pink Floyd - The Final Cut
DYEAR=1983
DGENRE=Rock
TTITLE0=The Post War Dream
TTITLE1=Your Possible Pasts
TTITLE2=One Of The Few
TTITLE3=The Hero's Return
TTITLE4=The Gunners Dream
TTITLE5=Paranoid Eyes
TTITLE6=Get Your Filthy Hands Off My Desert
TTITLE7=The Fletcher Memorial Home
TTITLE8=Southampton Dock
TTITLE9=The Final Cut
TTITLE10=Not Now John
TTITLE11=Two Suns In The Sunset
EXTD=
EXTT0=Roger Waters
EXTT1=Roger Waters
EXTT2=Roger Waters
EXTT3=Roger Waters
EXTT4=Roger Waters
EXTT5=Roger Waters
EXTT6=Roger Waters
EXTT7=Roger Waters
EXTT8=Roger Waters
EXTT9=Roger Waters
EXTT10=Roger Waters
EXTT11=Roger Waters
PLAYORDER=
